{"asset":{"version":"2.0","generator":"Blockbench 4.10.0 glTF exporter"},"scenes":[{"nodes":[16],"name":"blockbench_export"}],"scene":0,"nodes":[{"translation":[-0.024999999999999994,-0.09375000000000008,0],"name":"cuboid","mesh":0},{"translation":[-0.012499999999999997,-0.06250000000000006,0],"name":"cuboid","mesh":1},{"translation":[-0.006249999999999999,-0.03125000000000003,0],"name":"cuboid","mesh":2},{"name":"cuboid","mesh":3},{"translation":[0.025,0.09375000000000003,0],"name":"cuboid","mesh":4},{"translation":[0.006250000000000002,0.03125,0],"name":"cuboid","mesh":5},{"translation":[0.03125,0.12500000000000006,0],"name":"cuboid","mesh":6},{"translation":[0.01875,0.0625,0],"name":"cuboid","mesh":7},{"translation":[0.043750000000000004,0.15624999999999992,0],"name":"cuboid","mesh":8},{"translation":[0.05625,0.18749999999999994,0],"name":"cuboid","mesh":9},{"translation":[0.06249999999999999,0.21874999999999997,0],"name":"cuboid","mesh":10},{"translation":[-0.018750000000000003,-0.125,0],"name":"steps","children":[0,1,2,3,4,5,6,7,8,9,10]},{"rotation":[-0.7071067811865474,0,0,0.7071067811865477],"translation":[-0.004687500000000001,0.25,0.0609375],"name":"plane","mesh":11},{"rotation":[0,0,0.608761429008721,0.7933533402912348],"translation":[0.08906249999999996,0.48437500000000017,0],"name":"plane","mesh":12},{"rotation":[-0.7071067811865474,0,0,0.7071067811865477],"translation":[-0.004687500000000001,0.25,-0.0609375],"name":"plane","mesh":13},{"name":"Stairs","children":[11,12,13,14]},{"children":[15]}],"bufferViews":[{"buffer":0,"byteOffset":0,"byteLength":288,"target":34962,"byteStride":12},{"buffer":0,"byteOffset":288,"byteLength":288,"target":34962,"byteStride":12},{"buffer":0,"byteOffset":576,"byteLength":192,"target":34962,"byteStride":8},{"buffer":0,"byteOffset":768,"byteLength":72,"target":34963},{"buffer":0,"byteOffset":840,"byteLength":288,"target":34962,"byteStride":12},{"buffer":0,"byteOffset":1128,"byteLength":288,"target":34962,"byteStride":12},{"buffer":0,"byteOffset":1416,"byteLength":192,"target":34962,"byteStride":8},{"buffer":0,"byteOffset":1608,"byteLength":72,"target":34963},{"buffer":0,"byteOffset":1680,"byteLength":288,"target":34962,"byteStride":12},{"buffer":0,"byteOffset":1968,"byteLength":288,"target":34962,"byteStride":12},{"buffer":0,"byteOffset":2256,"byteLength":192,"target":34962,"byteStride":8},{"buffer":0,"byteOffset":2448,"byteLength":72,"target":34963},{"buffer":0,"byteOffset":2520,"byteLength":288,"target":34962,"byteStride":12},{"buffer":0,"byteOffset":2808,"byteLength":288,"target":34962,"byteStride":12},{"buffer":0,"byteOffset":3096,"byteLength":192,"target":34962,"byteStride":8},{"buffer":0,"byteOffset":3288,"byteLength":72,"target":34963},{"buffer":0,"byteOffset":3360,"byteLength":288,"target":34962,"byteStride":12},{"buffer":0,"byteOffset":3648,"byteLength":288,"target":34962,"byteStride":12},{"buffer":0,"byteOffset":3936,"byteLength":192,"target":34962,"byteStride":8},{"buffer":0,"byteOffset":4128,"byteLength":72,"target":34963},{"buffer":0,"byteOffset":4200,"byteLength":288,"target":34962,"byteStride":12},{"buffer":0,"byteOffset":4488,"byteLength":288,"target":34962,"byteStride":12},{"buffer":0,"byteOffset":4776,"byteLength":192,"target":34962,"byteStride":8},{"buffer":0,"byteOffset":4968,"byteLength":72,"target":34963},{"buffer":0,"byteOffset":5040,"byteLength":288,"target":34962,"byteStride":12},{"buffer":0,"byteOffset":5328,"byteLength":288,"target":34962,"byteStride":12},{"buffer":0,"byteOffset":5616,"byteLength":192,"target":34962,"byteStride":8},{"buffer":0,"byteOffset":5808,"byteLength":72,"target":34963},{"buffer":0,"byteOffset":5880,"byteLength":288,"target":34962,"byteStride":12},{"buffer":0,"byteOffset":6168,"byteLength":288,"target":34962,"byteStride":12},{"buffer":0,"byteOffset":6456,"byteLength":192,"target":34962,"byteStride":8},{"buffer":0,"byteOffset":6648,"byteLength":72,"target":34963},{"buffer":0,"byteOffset":6720,"byteLength":288,"target":34962,"byteStride":12},{"buffer":0,"byteOffset":7008,"byteLength":288,"target":34962,"byteStride":12},{"buffer":0,"byteOffset":7296,"byteLength":192,"target":34962,"byteStride":8},{"buffer":0,"byteOffset":7488,"byteLength":72,"target":34963},{"buffer":0,"byteOffset":7560,"byteLength":288,"target":34962,"byteStride":12},{"buffer":0,"byteOffset":7848,"byteLength":288,"target":34962,"byteStride":12},{"buffer":0,"byteOffset":8136,"byteLength":192,"target":34962,"byteStride":8},{"buffer":0,"byteOffset":8328,"byteLength":72,"target":34963},{"buffer":0,"byteOffset":8400,"byteLength":288,"target":34962,"byteStride":12},{"buffer":0,"byteOffset":8688,"byteLength":288,"target":34962,"byteStride":12},{"buffer":0,"byteOffset":8976,"byteLength":192,"target":34962,"byteStride":8},{"buffer":0,"byteOffset":9168,"byteLength":72,"target":34963},{"buffer":0,"byteOffset":9240,"byteLength":240,"target":34962,"byteStride":12},{"buffer":0,"byteOffset":9480,"byteLength":240,"target":34962,"byteStride":12},{"buffer":0,"byteOffset":9720,"byteLength":160,"target":34962,"byteStride":8},{"buffer":0,"byteOffset":9880,"byteLength":60,"target":34963},{"buffer":0,"byteOffset":9940,"byteLength":48,"target":34962,"byteStride":12},{"buffer":0,"byteOffset":9988,"byteLength":48,"target":34962,"byteStride":12},{"buffer":0,"byteOffset":10036,"byteLength":32,"target":34962,"byteStride":8},{"buffer":0,"byteOffset":10068,"byteLength":12,"target":34963},{"buffer":0,"byteOffset":10080,"byteLength":240,"target":34962,"byteStride":12},{"buffer":0,"byteOffset":10320,"byteLength":240,"target":34962,"byteStride":12},{"buffer":0,"byteOffset":10560,"byteLength":160,"target":34962,"byteStride":8},{"buffer":0,"byteOffset":10720,"byteLength":60,"target":34963}],"buffers":[{"byteLength":10780,"uri":"data:application/octet-stream;base64,"}],"accessors":[{"bufferView":0,"componentType":5126,"count":24,"max":[0.012500000186264515,0.2515625059604645,0.05000000074505806],"min":[-0.012500000186264515,0.24843749403953552,-0.05000000074505806],"type":"VEC3"},{"bufferView":1,"componentType":5126,"count":24,"max":[1,1,1],"min":[-1,-1,-1],"type":"VEC3"},{"bufferView":2,"componentType":5126,"count":24,"max":[0.59375,0.65625],"min":[0,0.3125],"type":"VEC2"},{"bufferView":3,"componentType":5123,"count":36,"max":[23],"min":[0],"type":"SCALAR"},{"bufferView":4,"componentType":5126,"count":24,"max":[0.012500000186264515,0.2515625059604645,0.05000000074505806],"min":[-0.012500000186264515,0.24843749403953552,-0.05000000074505806],"type":"VEC3"},{"bufferView":5,"componentType":5126,"count":24,"max":[1,1,1],"min":[-1,-1,-1],"type":"VEC3"},{"bufferView":6,"componentType":5126,"count":24,"max":[0.65625,0.65625],"min":[0,0],"type":"VEC2"},{"bufferView":7,"componentType":5123,"count":36,"max":[23],"min":[0],"type":"SCALAR"},{"bufferView":8,"componentType":5126,"count":24,"max":[0.012500000186264515,0.2515625059604645,0.05000000074505806],"min":[-0.012500000186264515,0.24843749403953552,-0.05000000074505806],"type":"VEC3"},{"bufferView":9,"componentType":5126,"count":24,"max":[1,1,1],"min":[-1,-1,-1],"type":"VEC3"},{"bufferView":10,"componentType":5126,"count":24,"max":[0.65625,0.65625],"min":[0.15625,0.25],"type":"VEC2"},{"bufferView":11,"componentType":5123,"count":36,"max":[23],"min":[0],"type":"SCALAR"},{"bufferView":12,"componentType":5126,"count":24,"max":[0.012500000186264515,0.2515625059604645,0.05000000074505806],"min":[-0.012500000186264515,0.24843749403953552,-0.05000000074505806],"type":"VEC3"},{"bufferView":13,"componentType":5126,"count":24,"max":[1,1,1],"min":[-1,-1,-1],"type":"VEC3"},{"bufferView":14,"componentType":5126,"count":24,"max":[0.65625,0.65625],"min":[0.1875,0.0625],"type":"VEC2"},{"bufferView":15,"componentType":5123,"count":36,"max":[23],"min":[0],"type":"SCALAR"},{"bufferView":16,"componentType":5126,"count":24,"max":[0.012500000186264515,0.2515625059604645,0.05000000074505806],"min":[-0.012500000186264515,0.24843749403953552,-0.05000000074505806],"type":"VEC3"},{"bufferView":17,"componentType":5126,"count":24,"max":[1,1,1],"min":[-1,-1,-1],"type":"VEC3"},{"bufferView":18,"componentType":5126,"count":24,"max":[0.65625,0.6875],"min":[0,0.09375],"type":"VEC2"},{"bufferView":19,"componentType":5123,"count":36,"max":[23],"min":[0],"type":"SCALAR"},{"bufferView":20,"componentType":5126,"count":24,"max":[0.012500000186264515,0.2515625059604645,0.05000000074505806],"min":[-0.012500000186264515,0.24843749403953552,-0.05000000074505806],"type":"VEC3"},{"bufferView":21,"componentType":5126,"count":24,"max":[1,1,1],"min":[-1,-1,-1],"type":"VEC3"},{"bufferView":22,"componentType":5126,"count":24,"max":[0.6875,0.5625],"min":[0.21875,0],"type":"VEC2"},{"bufferView":23,"componentType":5123,"count":36,"max":[23],"min":[0],"type":"SCALAR"},{"bufferView":24,"componentType":5126,"count":24,"max":[0.012500000186264515,0.2515625059604645,0.05000000074505806],"min":[-0.012500000186264515,0.24843749403953552,-0.05000000074505806],"type":"VEC3"},{"bufferView":25,"componentType":5126,"count":24,"max":[1,1,1],"min":[-1,-1,-1],"type":"VEC3"},{"bufferView":26,"componentType":5126,"count":24,"max":[0.5625,0.6875],"min":[0.0625,0.3125],"type":"VEC2"},{"bufferView":27,"componentType":5123,"count":36,"max":[23],"min":[0],"type":"SCALAR"},{"bufferView":28,"componentType":5126,"count":24,"max":[0.012500000186264515,0.2515625059604645,0.05000000074505806],"min":[-0.012500000186264515,0.24843749403953552,-0.05000000074505806],"type":"VEC3"},{"bufferView":29,"componentType":5126,"count":24,"max":[1,1,1],"min":[-1,-1,-1],"type":"VEC3"},{"bufferView":30,"componentType":5126,"count":24,"max":[0.6875,0.59375],"min":[0.125,0.09375],"type":"VEC2"},{"bufferView":31,"componentType":5123,"count":36,"max":[23],"min":[0],"type":"SCALAR"},{"bufferView":32,"componentType":5126,"count":24,"max":[0.012500000186264515,0.2515625059604645,0.05000000074505806],"min":[-0.012500000186264515,0.24843749403953552,-0.05000000074505806],"type":"VEC3"},{"bufferView":33,"componentType":5126,"count":24,"max":[1,1,1],"min":[-1,-1,-1],"type":"VEC3"},{"bufferView":34,"componentType":5126,"count":24,"max":[0.65625,0.71875],"min":[0.125,0.3125],"type":"VEC2"},{"bufferView":35,"componentType":5123,"count":36,"max":[23],"min":[0],"type":"SCALAR"},{"bufferView":36,"componentType":5126,"count":24,"max":[0.012500000186264515,0.2515625059604645,0.05000000074505806],"min":[-0.012500000186264515,0.24843749403953552,-0.05000000074505806],"type":"VEC3"},{"bufferView":37,"componentType":5126,"count":24,"max":[1,1,1],"min":[-1,-1,-1],"type":"VEC3"},{"bufferView":38,"componentType":5126,"count":24,"max":[0.71875,0.71875],"min":[0,0],"type":"VEC2"},{"bufferView":39,"componentType":5123,"count":36,"max":[23],"min":[0],"type":"SCALAR"},{"bufferView":40,"componentType":5126,"count":24,"max":[0.012500000186264515,0.2515625059604645,0.05000000074505806],"min":[-0.012500000186264515,0.24843749403953552,-0.05000000074505806],"type":"VEC3"},{"bufferView":41,"componentType":5126,"count":24,"max":[1,1,1],"min":[-1,-1,-1],"type":"VEC3"},{"bufferView":42,"componentType":5126,"count":24,"max":[0.65625,0.6875],"min":[0.34375,0.25],"type":"VEC2"},{"bufferView":43,"componentType":5123,"count":36,"max":[23],"min":[0],"type":"SCALAR"},{"bufferView":44,"componentType":5126,"count":20,"max":[0.0625,0,0.11468346416950226],"min":[-0.0625,-0.0062500000931322575,-0.25],"type":"VEC3"},{"bufferView":45,"componentType":5126,"count":20,"max":[0.9653633832931519,1,1],"min":[-1,-1.7675205916944936e-14,-0.9994775652885437],"type":"VEC3"},{"bufferView":46,"componentType":5126,"count":20,"max":[0.625,0.5625],"min":[0,0.15625],"type":"VEC2"},{"bufferView":47,"componentType":5123,"count":30,"max":[19],"min":[0],"type":"SCALAR"},{"bufferView":48,"componentType":5126,"count":4,"max":[-0.125,0,0.0625],"min":[-0.5,0,-0.0625],"type":"VEC3"},{"bufferView":49,"componentType":5126,"count":4,"max":[0,1,0],"min":[0,1,0],"type":"VEC3"},{"bufferView":50,"componentType":5126,"count":4,"max":[0.1875,0.0625],"min":[0,0],"type":"VEC2"},{"bufferView":51,"componentType":5123,"count":6,"max":[3],"min":[0],"type":"SCALAR"},{"bufferView":52,"componentType":5126,"count":20,"max":[0.0625,0.0062500000931322575,0.11468346416950226],"min":[-0.0625,-2.220446049250313e-16,-0.25],"type":"VEC3"},{"bufferView":53,"componentType":5126,"count":20,"max":[1,1,0.9994775652885437],"min":[-0.9653633832931519,-1.7675205916944936e-14,-1],"type":"VEC3"},{"bufferView":54,"componentType":5126,"count":20,"max":[0.40625,0.25],"min":[0,0],"type":"VEC2"},{"bufferView":55,"componentType":5123,"count":30,"max":[19],"min":[0],"type":"SCALAR"}],"materials":[{"pbrMetallicRoughness":{"metallicFactor":0,"roughnessFactor":1,"baseColorTexture":{"index":0}},"alphaMode":"MASK","alphaCutoff":0.05,"doubleSided":true}],"textures":[{"sampler":0,"source":0,"name":"texture"}],"samplers":[{"magFilter":9728,"minFilter":9728,"wrapS":33071,"wrapT":33071}],"images":[{"mimeType":"image/png","uri":"data:image/png;base64,"}],"meshes":[{"primitives":[{"mode":4,"attributes":{"POSITION":0,"NORMAL":1,"TEXCOORD_0":2},"indices":3,"material":0}]},{"primitives":[{"mode":4,"attributes":{"POSITION":4,"NORMAL":5,"TEXCOORD_0":6},"indices":7,"material":0}]},{"primitives":[{"mode":4,"attributes":{"POSITION":8,"NORMAL":9,"TEXCOORD_0":10},"indices":11,"material":0}]},{"primitives":[{"mode":4,"attributes":{"POSITION":12,"NORMAL":13,"TEXCOORD_0":14},"indices":15,"material":0}]},{"primitives":[{"mode":4,"attributes":{"POSITION":16,"NORMAL":17,"TEXCOORD_0":18},"indices":19,"material":0}]},{"primitives":[{"mode":4,"attributes":{"POSITION":20,"NORMAL":21,"TEXCOORD_0":22},"indices":23,"material":0}]},{"primitives":[{"mode":4,"attributes":{"POSITION":24,"NORMAL":25,"TEXCOORD_0":26},"indices":27,"material":0}]},{"primitives":[{"mode":4,"attributes":{"POSITION":28,"NORMAL":29,"TEXCOORD_0":30},"indices":31,"material":0}]},{"primitives":[{"mode":4,"attributes":{"POSITION":32,"NORMAL":33,"TEXCOORD_0":34},"indices":35,"material":0}]},{"primitives":[{"mode":4,"attributes":{"POSITION":36,"NORMAL":37,"TEXCOORD_0":38},"indices":39,"material":0}]},{"primitives":[{"mode":4,"attributes":{"POSITION":40,"NORMAL":41,"TEXCOORD_0":42},"indices":43,"material":0}]},{"primitives":[{"mode":4,"attributes":{"POSITION":44,"NORMAL":45,"TEXCOORD_0":46},"indices":47,"material":0}]},{"primitives":[{"mode":4,"attributes":{"POSITION":48,"NORMAL":49,"TEXCOORD_0":50},"indices":51,"material":0}]},{"primitives":[{"mode":4,"attributes":{"POSITION":52,"NORMAL":53,"TEXCOORD_0":54},"indices":55,"material":0}]}]}