{
	"asset":{
		"generator":"Khronos glTF Blender I/O v3.6.27",
		"version":"2.0"
	},
	"scene":0,
	"scenes":[
		{
			"name":"Scene",
			"nodes":[
				0
			]
		}
	],
	"nodes":[
		{
			"mesh":0,
			"name":"Plane",
			"scale":[
				23.728328704833984,
				18.18086051940918,
				26.790307998657227
			],
			"translation":[
				0.008807241916656494,
				0.05978071689605713,
				0.021863579750061035
			]
		}
	],
	"meshes":[
		{
			"name":"Plane.001",
			"primitives":[
				{
					"attributes":{
						"COLOR_0":0,
						"POSITION":1,
						"NORMAL":2,
						"TEXCOORD_0":3
					},
					"indices":4
				}
			]
		}
	],
	"accessors":[
		{
			"bufferView":0,
			"componentType":5123,
			"count":264,
			"normalized":true,
			"type":"VEC4"
		},
		{
			"bufferView":1,
			"componentType":5126,
			"count":264,
			"max":[
				1.4291846752166748,
				1.0962741374969482,
				2.017853021621704
			],
			"min":[
				-1.944014549255371,
				-0.5091678500175476,
				-2.0073981285095215
			],
			"type":"VEC3"
		},
		{
			"bufferView":2,
			"componentType":5126,
			"count":264,
			"type":"VEC3"
		},
		{
			"bufferView":3,
			"componentType":5126,
			"count":264,
			"type":"VEC2"
		},
		{
			"bufferView":4,
			"componentType":5123,
			"count":396,
			"type":"SCALAR"
		}
	],
	"bufferViews":[
		{
			"buffer":0,
			"byteLength":2112,
			"byteOffset":0,
			"target":34962
		},
		{
			"buffer":0,
			"byteLength":3168,
			"byteOffset":2112,
			"target":34962
		},
		{
			"buffer":0,
			"byteLength":3168,
			"byteOffset":5280,
			"target":34962
		},
		{
			"buffer":0,
			"byteLength":2112,
			"byteOffset":8448,
			"target":34962
		},
		{
			"buffer":0,
			"byteLength":792,
			"byteOffset":10560,
			"target":34963
		}
	],
	"buffers":[
		{
			"byteLength":11352,
			"uri":"data:application/octet-stream;base64,"
		}
	]
}
