{"asset":{"version":"2.0","generator":"Blockbench 4.10.0 glTF exporter"},"scenes":[{"nodes":[5],"name":"blockbench_export"}],"scene":0,"nodes":[{"rotation":[0,0,0.7071067811865474,0.7071067811865477],"translation":[5,0,-3.40625],"name":"tube","mesh":0},{"rotation":[0,0,0.7071067811865474,0.7071067811865477],"translation":[2,0,-3.40625],"name":"tube","mesh":1},{"translation":[-3.1875,0,0],"name":"traindoor","children":[0,1]},{"name":"plane","mesh":2},{"name":"root","children":[2,3]},{"children":[4]}],"bufferViews":[{"buffer":0,"byteOffset":0,"byteLength":1344,"target":34962,"byteStride":12},{"buffer":0,"byteOffset":1344,"byteLength":1344,"target":34962,"byteStride":12},{"buffer":0,"byteOffset":2688,"byteLength":896,"target":34962,"byteStride":8},{"buffer":0,"byteOffset":3584,"byteLength":336,"target":34963},{"buffer":0,"byteOffset":3920,"byteLength":1344,"target":34962,"byteStride":12},{"buffer":0,"byteOffset":5264,"byteLength":1344,"target":34962,"byteStride":12},{"buffer":0,"byteOffset":6608,"byteLength":896,"target":34962,"byteStride":8},{"buffer":0,"byteOffset":7504,"byteLength":336,"target":34963},{"buffer":0,"byteOffset":7840,"byteLength":3000,"target":34962,"byteStride":12},{"buffer":0,"byteOffset":10840,"byteLength":3000,"target":34962,"byteStride":12},{"buffer":0,"byteOffset":13840,"byteLength":2000,"target":34962,"byteStride":8},{"buffer":0,"byteOffset":15840,"byteLength":744,"target":34963}],"buffers":[{"byteLength":16584,"uri":"data:application/octet-stream;base64,"}],"accessors":[{"bufferView":0,"componentType":5126,"count":112,"max":[0.5,0.5,0.375],"min":[-0.2589745819568634,0,-0.375],"type":"VEC3"},{"bufferView":1,"componentType":5126,"count":112,"max":[1,1,1],"min":[-1,-1,-1],"type":"VEC3"},{"bufferView":2,"componentType":5126,"count":112,"max":[0.6088714599609375,0.61328125],"min":[0.0002749999985098839,0.125],"type":"VEC2"},{"bufferView":3,"componentType":5123,"count":168,"max":[111],"min":[0],"type":"SCALAR"},{"bufferView":4,"componentType":5126,"count":112,"max":[0.5,0.5,0.375],"min":[-0.2589745819568634,0,-0.375],"type":"VEC3"},{"bufferView":5,"componentType":5126,"count":112,"max":[1,1,1],"min":[-1,-1,-1],"type":"VEC3"},{"bufferView":6,"componentType":5126,"count":112,"max":[0.6088714599609375,0.625],"min":[0,0.16015625],"type":"VEC2"},{"bufferView":7,"componentType":5123,"count":168,"max":[111],"min":[0],"type":"SCALAR"},{"bufferView":8,"componentType":5126,"count":250,"max":[1.5,1.9375,3.698986530303955],"min":[-1.5,-0.1875,-3.7697641849517822],"type":"VEC3"},{"bufferView":9,"componentType":5126,"count":250,"max":[1,1,1],"min":[-1,-1,-1],"type":"VEC3"},{"bufferView":10,"componentType":5126,"count":250,"max":[0.7607421875,0.63671875],"min":[0,0],"type":"VEC2"},{"bufferView":11,"componentType":5123,"count":372,"max":[249],"min":[0],"type":"SCALAR"}],"materials":[{"pbrMetallicRoughness":{"metallicFactor":0,"roughnessFactor":1,"baseColorTexture":{"index":0}},"alphaMode":"MASK","alphaCutoff":0.05,"doubleSided":true}],"textures":[{"sampler":0,"source":0,"name":"texture"}],"samplers":[{"magFilter":9728,"minFilter":9728,"wrapS":33071,"wrapT":33071}],"images":[{"mimeType":"image/png","uri":"data:image/png;base64,"}],"meshes":[{"primitives":[{"mode":4,"attributes":{"POSITION":0,"NORMAL":1,"TEXCOORD_0":2},"indices":3,"material":0}]},{"primitives":[{"mode":4,"attributes":{"POSITION":4,"NORMAL":5,"TEXCOORD_0":6},"indices":7,"material":0}]},{"primitives":[{"mode":4,"attributes":{"POSITION":8,"NORMAL":9,"TEXCOORD_0":10},"indices":11,"material":0}]}]}