{"asset":{"version":"2.0","generator":"Blockbench 4.10.0 glTF exporter"},"scenes":[{"nodes":[13],"name":"blockbench_export"}],"scene":0,"nodes":[{"name":"cuboid","mesh":0},{"rotation":[-0.7071067811865474,0,0,0.7071067811865477],"translation":[0,0.5999999999999998,-0.24375],"name":"plane","mesh":1},{"rotation":[-0.7071067811865474,0,0,0.7071067811865477],"translation":[0,0.5125000000000001,-0.24375],"name":"plane","mesh":2},{"rotation":[-0.7071067811865474,0,0,0.7071067811865477],"translation":[0,0.42500000000000027,-0.24375],"name":"plane","mesh":3},{"rotation":[-0.7071067811865474,0,0,0.7071067811865477],"translation":[0,0.3375000000000006,-0.24375],"name":"plane","mesh":4},{"rotation":[-0.7071067811865474,0,0,0.7071067811865477],"translation":[0,0.2500000000000009,-0.24375],"name":"plane","mesh":5},{"rotation":[-0.7071067811865474,0,0,0.7071067811865477],"translation":[0,0.20625000000000085,-0.24375],"name":"plane","mesh":6},{"rotation":[-0.7071067811865474,0,0,0.7071067811865477],"translation":[0,0.29375000000000073,-0.24375],"name":"plane","mesh":7},{"rotation":[-0.7071067811865474,0,0,0.7071067811865477],"translation":[0,0.3812500000000004,-0.24375],"name":"plane","mesh":8},{"rotation":[-0.7071067811865474,0,0,0.7071067811865477],"translation":[0,0.4687500000000002,-0.24375],"name":"plane","mesh":9},{"rotation":[-0.7071067811865474,0,0,0.7071067811865477],"translation":[0,0.5562499999999999,-0.24375],"name":"plane","mesh":10},{"translation":[0,0,0.03125],"name":"bone","children":[1,2,3,4,5,6,7,8,9,10]},{"name":"root","children":[0,11]},{"children":[12]}],"bufferViews":[{"buffer":0,"byteOffset":0,"byteLength":1248,"target":34962,"byteStride":12},{"buffer":0,"byteOffset":1248,"byteLength":1248,"target":34962,"byteStride":12},{"buffer":0,"byteOffset":2496,"byteLength":832,"target":34962,"byteStride":8},{"buffer":0,"byteOffset":3328,"byteLength":312,"target":34963},{"buffer":0,"byteOffset":3640,"byteLength":48,"target":34962,"byteStride":12},{"buffer":0,"byteOffset":3688,"byteLength":48,"target":34962,"byteStride":12},{"buffer":0,"byteOffset":3736,"byteLength":32,"target":34962,"byteStride":8},{"buffer":0,"byteOffset":3768,"byteLength":12,"target":34963},{"buffer":0,"byteOffset":3780,"byteLength":48,"target":34962,"byteStride":12},{"buffer":0,"byteOffset":3828,"byteLength":48,"target":34962,"byteStride":12},{"buffer":0,"byteOffset":3876,"byteLength":32,"target":34962,"byteStride":8},{"buffer":0,"byteOffset":3908,"byteLength":12,"target":34963},{"buffer":0,"byteOffset":3920,"byteLength":48,"target":34962,"byteStride":12},{"buffer":0,"byteOffset":3968,"byteLength":48,"target":34962,"byteStride":12},{"buffer":0,"byteOffset":4016,"byteLength":32,"target":34962,"byteStride":8},{"buffer":0,"byteOffset":4048,"byteLength":12,"target":34963},{"buffer":0,"byteOffset":4060,"byteLength":48,"target":34962,"byteStride":12},{"buffer":0,"byteOffset":4108,"byteLength":48,"target":34962,"byteStride":12},{"buffer":0,"byteOffset":4156,"byteLength":32,"target":34962,"byteStride":8},{"buffer":0,"byteOffset":4188,"byteLength":12,"target":34963},{"buffer":0,"byteOffset":4200,"byteLength":48,"target":34962,"byteStride":12},{"buffer":0,"byteOffset":4248,"byteLength":48,"target":34962,"byteStride":12},{"buffer":0,"byteOffset":4296,"byteLength":32,"target":34962,"byteStride":8},{"buffer":0,"byteOffset":4328,"byteLength":12,"target":34963},{"buffer":0,"byteOffset":4340,"byteLength":48,"target":34962,"byteStride":12},{"buffer":0,"byteOffset":4388,"byteLength":48,"target":34962,"byteStride":12},{"buffer":0,"byteOffset":4436,"byteLength":32,"target":34962,"byteStride":8},{"buffer":0,"byteOffset":4468,"byteLength":12,"target":34963},{"buffer":0,"byteOffset":4480,"byteLength":48,"target":34962,"byteStride":12},{"buffer":0,"byteOffset":4528,"byteLength":48,"target":34962,"byteStride":12},{"buffer":0,"byteOffset":4576,"byteLength":32,"target":34962,"byteStride":8},{"buffer":0,"byteOffset":4608,"byteLength":12,"target":34963},{"buffer":0,"byteOffset":4620,"byteLength":48,"target":34962,"byteStride":12},{"buffer":0,"byteOffset":4668,"byteLength":48,"target":34962,"byteStride":12},{"buffer":0,"byteOffset":4716,"byteLength":32,"target":34962,"byteStride":8},{"buffer":0,"byteOffset":4748,"byteLength":12,"target":34963},{"buffer":0,"byteOffset":4760,"byteLength":48,"target":34962,"byteStride":12},{"buffer":0,"byteOffset":4808,"byteLength":48,"target":34962,"byteStride":12},{"buffer":0,"byteOffset":4856,"byteLength":32,"target":34962,"byteStride":8},{"buffer":0,"byteOffset":4888,"byteLength":12,"target":34963},{"buffer":0,"byteOffset":4900,"byteLength":48,"target":34962,"byteStride":12},{"buffer":0,"byteOffset":4948,"byteLength":48,"target":34962,"byteStride":12},{"buffer":0,"byteOffset":4996,"byteLength":32,"target":34962,"byteStride":8},{"buffer":0,"byteOffset":5028,"byteLength":12,"target":34963}],"buffers":[{"byteLength":5040,"uri":"data:application/octet-stream;base64,"}],"accessors":[{"bufferView":0,"componentType":5126,"count":104,"max":[0.375,0.75,0.5],"min":[-0.375,0.0625,-0.25],"type":"VEC3"},{"bufferView":1,"componentType":5126,"count":104,"max":[1,1,1],"min":[-1,-1,-1],"type":"VEC3"},{"bufferView":2,"componentType":5126,"count":104,"max":[0.71875,0.71875],"min":[0,0],"type":"VEC2"},{"bufferView":3,"componentType":5123,"count":156,"max":[103],"min":[0],"type":"SCALAR"},{"bufferView":4,"componentType":5126,"count":4,"max":[0.28125,0,0.012500000186264515],"min":[-0.28125,0,-0.012500000186264515],"type":"VEC3"},{"bufferView":5,"componentType":5126,"count":4,"max":[0,1,0],"min":[0,1,0],"type":"VEC3"},{"bufferView":6,"componentType":5126,"count":4,"max":[0.703125,0.203125],"min":[0.5625,0.1875],"type":"VEC2"},{"bufferView":7,"componentType":5123,"count":6,"max":[3],"min":[0],"type":"SCALAR"},{"bufferView":8,"componentType":5126,"count":4,"max":[0.28125,0,0.012500000186264515],"min":[-0.28125,0,-0.012500000186264515],"type":"VEC3"},{"bufferView":9,"componentType":5126,"count":4,"max":[0,1,0],"min":[0,1,0],"type":"VEC3"},{"bufferView":10,"componentType":5126,"count":4,"max":[0.703125,0.265625],"min":[0.5625,0.25],"type":"VEC2"},{"bufferView":11,"componentType":5123,"count":6,"max":[3],"min":[0],"type":"SCALAR"},{"bufferView":12,"componentType":5126,"count":4,"max":[0.28125,0,0.012500000186264515],"min":[-0.28125,0,-0.012500000186264515],"type":"VEC3"},{"bufferView":13,"componentType":5126,"count":4,"max":[0,1,0],"min":[0,1,0],"type":"VEC3"},{"bufferView":14,"componentType":5126,"count":4,"max":[0.703125,0.359375],"min":[0.5625,0.34375],"type":"VEC2"},{"bufferView":15,"componentType":5123,"count":6,"max":[3],"min":[0],"type":"SCALAR"},{"bufferView":16,"componentType":5126,"count":4,"max":[0.28125,0,0.012500000186264515],"min":[-0.28125,0,-0.012500000186264515],"type":"VEC3"},{"bufferView":17,"componentType":5126,"count":4,"max":[0,1,0],"min":[0,1,0],"type":"VEC3"},{"bufferView":18,"componentType":5126,"count":4,"max":[0.703125,0.453125],"min":[0.5625,0.4375],"type":"VEC2"},{"bufferView":19,"componentType":5123,"count":6,"max":[3],"min":[0],"type":"SCALAR"},{"bufferView":20,"componentType":5126,"count":4,"max":[0.28125,0,0.012500000186264515],"min":[-0.28125,0,-0.012500000186264515],"type":"VEC3"},{"bufferView":21,"componentType":5126,"count":4,"max":[0,1,0],"min":[0,1,0],"type":"VEC3"},{"bufferView":22,"componentType":5126,"count":4,"max":[0.203125,0.59375],"min":[0.0625,0.578125],"type":"VEC2"},{"bufferView":23,"componentType":5123,"count":6,"max":[3],"min":[0],"type":"SCALAR"},{"bufferView":24,"componentType":5126,"count":4,"max":[0.28125,0,0.012500000186264515],"min":[-0.28125,0,-0.012500000186264515],"type":"VEC3"},{"bufferView":25,"componentType":5126,"count":4,"max":[0,1,0],"min":[0,1,0],"type":"VEC3"},{"bufferView":26,"componentType":5126,"count":4,"max":[0.203125,0.625],"min":[0.0625,0.609375],"type":"VEC2"},{"bufferView":27,"componentType":5123,"count":6,"max":[3],"min":[0],"type":"SCALAR"},{"bufferView":28,"componentType":5126,"count":4,"max":[0.28125,0,0.012500000186264515],"min":[-0.28125,0,-0.012500000186264515],"type":"VEC3"},{"bufferView":29,"componentType":5126,"count":4,"max":[0,1,0],"min":[0,1,0],"type":"VEC3"},{"bufferView":30,"componentType":5126,"count":4,"max":[0.703125,0.484375],"min":[0.5625,0.46875],"type":"VEC2"},{"bufferView":31,"componentType":5123,"count":6,"max":[3],"min":[0],"type":"SCALAR"},{"bufferView":32,"componentType":5126,"count":4,"max":[0.28125,0,0.012500000186264515],"min":[-0.28125,0,-0.012500000186264515],"type":"VEC3"},{"bufferView":33,"componentType":5126,"count":4,"max":[0,1,0],"min":[0,1,0],"type":"VEC3"},{"bufferView":34,"componentType":5126,"count":4,"max":[0.703125,0.390625],"min":[0.5625,0.375],"type":"VEC2"},{"bufferView":35,"componentType":5123,"count":6,"max":[3],"min":[0],"type":"SCALAR"},{"bufferView":36,"componentType":5126,"count":4,"max":[0.28125,0,0.012500000186264515],"min":[-0.28125,0,-0.012500000186264515],"type":"VEC3"},{"bufferView":37,"componentType":5126,"count":4,"max":[0,1,0],"min":[0,1,0],"type":"VEC3"},{"bufferView":38,"componentType":5126,"count":4,"max":[0.703125,0.296875],"min":[0.5625,0.28125],"type":"VEC2"},{"bufferView":39,"componentType":5123,"count":6,"max":[3],"min":[0],"type":"SCALAR"},{"bufferView":40,"componentType":5126,"count":4,"max":[0.28125,0,0.012500000186264515],"min":[-0.28125,0,-0.012500000186264515],"type":"VEC3"},{"bufferView":41,"componentType":5126,"count":4,"max":[0,1,0],"min":[0,1,0],"type":"VEC3"},{"bufferView":42,"componentType":5126,"count":4,"max":[0.703125,0.234375],"min":[0.5625,0.21875],"type":"VEC2"},{"bufferView":43,"componentType":5123,"count":6,"max":[3],"min":[0],"type":"SCALAR"}],"materials":[{"pbrMetallicRoughness":{"metallicFactor":0,"roughnessFactor":1,"baseColorTexture":{"index":0}},"alphaMode":"MASK","alphaCutoff":0.05,"doubleSided":true}],"textures":[{"sampler":0,"source":0,"name":"vent"}],"samplers":[{"magFilter":9728,"minFilter":9728,"wrapS":33071,"wrapT":33071}],"images":[{"mimeType":"image/png","uri":"data:image/png;base64,"}],"meshes":[{"primitives":[{"mode":4,"attributes":{"POSITION":0,"NORMAL":1,"TEXCOORD_0":2},"indices":3,"material":0}]},{"primitives":[{"mode":4,"attributes":{"POSITION":4,"NORMAL":5,"TEXCOORD_0":6},"indices":7,"material":0}]},{"primitives":[{"mode":4,"attributes":{"POSITION":8,"NORMAL":9,"TEXCOORD_0":10},"indices":11,"material":0}]},{"primitives":[{"mode":4,"attributes":{"POSITION":12,"NORMAL":13,"TEXCOORD_0":14},"indices":15,"material":0}]},{"primitives":[{"mode":4,"attributes":{"POSITION":16,"NORMAL":17,"TEXCOORD_0":18},"indices":19,"material":0}]},{"primitives":[{"mode":4,"attributes":{"POSITION":20,"NORMAL":21,"TEXCOORD_0":22},"indices":23,"material":0}]},{"primitives":[{"mode":4,"attributes":{"POSITION":24,"NORMAL":25,"TEXCOORD_0":26},"indices":27,"material":0}]},{"primitives":[{"mode":4,"attributes":{"POSITION":28,"NORMAL":29,"TEXCOORD_0":30},"indices":31,"material":0}]},{"primitives":[{"mode":4,"attributes":{"POSITION":32,"NORMAL":33,"TEXCOORD_0":34},"indices":35,"material":0}]},{"primitives":[{"mode":4,"attributes":{"POSITION":36,"NORMAL":37,"TEXCOORD_0":38},"indices":39,"material":0}]},{"primitives":[{"mode":4,"attributes":{"POSITION":40,"NORMAL":41,"TEXCOORD_0":42},"indices":43,"material":0}]}]}