{"asset":{"version":"2.0","generator":"Blockbench 4.10.0 glTF exporter"},"scenes":[{"nodes":[5],"name":"blockbench_export"}],"scene":0,"nodes":[{"name":"cylinder","mesh":0},{"translation":[-0.125,1.0812499999999998,-0.1875],"name":"pyramid","mesh":1},{"translation":[-0.125,1.0812499999999998,0.0625],"name":"pyramid","mesh":2},{"translation":[0.125,1.0812499999999998,0],"name":"pyramid","mesh":3},{"name":"plant","children":[1,2,3]},{"children":[0,4]}],"bufferViews":[{"buffer":0,"byteOffset":0,"byteLength":1296,"target":34962,"byteStride":12},{"buffer":0,"byteOffset":1296,"byteLength":1296,"target":34962,"byteStride":12},{"buffer":0,"byteOffset":2592,"byteLength":864,"target":34962,"byteStride":8},{"buffer":0,"byteOffset":3456,"byteLength":288,"target":34963},{"buffer":0,"byteOffset":3744,"byteLength":192,"target":34962,"byteStride":12},{"buffer":0,"byteOffset":3936,"byteLength":192,"target":34962,"byteStride":12},{"buffer":0,"byteOffset":4128,"byteLength":128,"target":34962,"byteStride":8},{"buffer":0,"byteOffset":4256,"byteLength":36,"target":34963},{"buffer":0,"byteOffset":4292,"byteLength":192,"target":34962,"byteStride":12},{"buffer":0,"byteOffset":4484,"byteLength":192,"target":34962,"byteStride":12},{"buffer":0,"byteOffset":4676,"byteLength":128,"target":34962,"byteStride":8},{"buffer":0,"byteOffset":4804,"byteLength":36,"target":34963},{"buffer":0,"byteOffset":4840,"byteLength":192,"target":34962,"byteStride":12},{"buffer":0,"byteOffset":5032,"byteLength":192,"target":34962,"byteStride":12},{"buffer":0,"byteOffset":5224,"byteLength":128,"target":34962,"byteStride":8},{"buffer":0,"byteOffset":5352,"byteLength":36,"target":34963}],"buffers":[{"byteLength":5388,"uri":"data:application/octet-stream;base64,"}],"accessors":[{"bufferView":0,"componentType":5126,"count":108,"max":[0.5773502588272095,0.625,0.5],"min":[-0.5773502588272095,0,-0.5],"type":"VEC3"},{"bufferView":1,"componentType":5126,"count":108,"max":[0.8660253882408142,1,1],"min":[-0.8660253882408142,-1,-1],"type":"VEC3"},{"bufferView":2,"componentType":5126,"count":108,"max":[0.659878134727478,0.671875],"min":[0.004100000020116568,0],"type":"VEC2"},{"bufferView":3,"componentType":5123,"count":144,"max":[107],"min":[0],"type":"SCALAR"},{"bufferView":4,"componentType":5126,"count":16,"max":[0.125,0.625,0.125],"min":[-0.25,-0.625,-0.125],"type":"VEC3"},{"bufferView":5,"componentType":5126,"count":16,"max":[0.9578262567520142,0.2873478829860687,0.9950371980667114],"min":[-0.9950371980667114,-1,-0.9950371980667114],"type":"VEC3"},{"bufferView":6,"componentType":5126,"count":16,"max":[0.6248142719268799,0.530878484249115],"min":[0.00014236858987715095,0],"type":"VEC2"},{"bufferView":7,"componentType":5123,"count":18,"max":[15],"min":[0],"type":"SCALAR"},{"bufferView":8,"componentType":5126,"count":16,"max":[0.125,0.625,0.125],"min":[-0.125,-0.625,-0.125],"type":"VEC3"},{"bufferView":9,"componentType":5126,"count":16,"max":[0.9950371980667114,0.1961161345243454,1],"min":[-0.9950371980667114,-1,-0.9805806875228882],"type":"VEC3"},{"bufferView":10,"componentType":5126,"count":16,"max":[0.46859490871429443,0.6578093767166138],"min":[0,0],"type":"VEC2"},{"bufferView":11,"componentType":5123,"count":18,"max":[15],"min":[0],"type":"SCALAR"},{"bufferView":12,"componentType":5126,"count":16,"max":[0.125,0.625,0.125],"min":[-0.125,-0.625,-0.125],"type":"VEC3"},{"bufferView":13,"componentType":5126,"count":16,"max":[1,0.1961161345243454,0.9950371980667114],"min":[-0.9805806875228882,-1,-0.9950371980667114],"type":"VEC3"},{"bufferView":14,"componentType":5126,"count":16,"max":[0.46859490871429443,0.7203086018562317],"min":[0.078125,0.109375],"type":"VEC2"},{"bufferView":15,"componentType":5123,"count":18,"max":[15],"min":[0],"type":"SCALAR"}],"materials":[{"pbrMetallicRoughness":{"metallicFactor":0,"roughnessFactor":1,"baseColorTexture":{"index":0}},"alphaMode":"MASK","alphaCutoff":0.05,"doubleSided":true},{"pbrMetallicRoughness":{"metallicFactor":0,"roughnessFactor":1,"baseColorTexture":{"index":1}},"alphaMode":"MASK","alphaCutoff":0.05,"doubleSided":true}],"textures":[{"sampler":0,"source":0,"name":"texture"},{"sampler":1,"source":1,"name":"texture"}],"samplers":[{"magFilter":9728,"minFilter":9728,"wrapS":33071,"wrapT":33071},{"magFilter":9728,"minFilter":9728,"wrapS":33071,"wrapT":33071}],"images":[{"mimeType":"image/png","uri":"data:image/png;base64,"},{"mimeType":"image/png","uri":"data:image/png;base64,"}],"meshes":[{"primitives":[{"mode":4,"attributes":{"POSITION":0,"NORMAL":1,"TEXCOORD_0":2},"indices":3,"material":0}]},{"primitives":[{"mode":4,"attributes":{"POSITION":4,"NORMAL":5,"TEXCOORD_0":6},"indices":7,"material":1}]},{"primitives":[{"mode":4,"attributes":{"POSITION":8,"NORMAL":9,"TEXCOORD_0":10},"indices":11,"material":1}]},{"primitives":[{"mode":4,"attributes":{"POSITION":12,"NORMAL":13,"TEXCOORD_0":14},"indices":15,"material":1}]}]}