{"asset":{"version":"2.0","generator":"Blockbench 4.10.0 glTF exporter"},"scenes":[{"nodes":[5],"name":"blockbench_export"}],"scene":0,"nodes":[{"name":"cuboid","mesh":0},{"translation":[-0.1875,0,-0.3125],"name":"cuboid","mesh":1},{"translation":[-0.1875,0,0.3125],"name":"cuboid","mesh":2},{"translation":[-0.1875,0,-0.09999999999999998],"name":"cuboid","mesh":3},{"translation":[-0.1875,0,0.09375000000000003],"name":"cuboid","mesh":4},{"children":[0,1,2,3,4]}],"bufferViews":[{"buffer":0,"byteOffset":0,"byteLength":1056,"target":34962,"byteStride":12},{"buffer":0,"byteOffset":1056,"byteLength":1056,"target":34962,"byteStride":12},{"buffer":0,"byteOffset":2112,"byteLength":704,"target":34962,"byteStride":8},{"buffer":0,"byteOffset":2816,"byteLength":264,"target":34963},{"buffer":0,"byteOffset":3080,"byteLength":288,"target":34962,"byteStride":12},{"buffer":0,"byteOffset":3368,"byteLength":288,"target":34962,"byteStride":12},{"buffer":0,"byteOffset":3656,"byteLength":192,"target":34962,"byteStride":8},{"buffer":0,"byteOffset":3848,"byteLength":72,"target":34963},{"buffer":0,"byteOffset":3920,"byteLength":288,"target":34962,"byteStride":12},{"buffer":0,"byteOffset":4208,"byteLength":288,"target":34962,"byteStride":12},{"buffer":0,"byteOffset":4496,"byteLength":192,"target":34962,"byteStride":8},{"buffer":0,"byteOffset":4688,"byteLength":72,"target":34963},{"buffer":0,"byteOffset":4760,"byteLength":288,"target":34962,"byteStride":12},{"buffer":0,"byteOffset":5048,"byteLength":288,"target":34962,"byteStride":12},{"buffer":0,"byteOffset":5336,"byteLength":192,"target":34962,"byteStride":8},{"buffer":0,"byteOffset":5528,"byteLength":72,"target":34963},{"buffer":0,"byteOffset":5600,"byteLength":288,"target":34962,"byteStride":12},{"buffer":0,"byteOffset":5888,"byteLength":288,"target":34962,"byteStride":12},{"buffer":0,"byteOffset":6176,"byteLength":192,"target":34962,"byteStride":8},{"buffer":0,"byteOffset":6368,"byteLength":72,"target":34963}],"buffers":[{"byteLength":6440,"uri":"data:application/octet-stream;base64,"}],"accessors":[{"bufferView":0,"componentType":5126,"count":88,"max":[0.3125,0.4375,0.625],"min":[-0.3125,0,-0.625],"type":"VEC3"},{"bufferView":1,"componentType":5126,"count":88,"max":[1,1,1],"min":[-1,-1,-1],"type":"VEC3"},{"bufferView":2,"componentType":5126,"count":88,"max":[0.6017551422119141,0.734375],"min":[0,0],"type":"VEC2"},{"bufferView":3,"componentType":5123,"count":132,"max":[87],"min":[0],"type":"SCALAR"},{"bufferView":4,"componentType":5126,"count":24,"max":[0.0062500000931322575,0.359375,0.012500000186264515],"min":[-0.0062500000931322575,0,-0.012500000186264515],"type":"VEC3"},{"bufferView":5,"componentType":5126,"count":24,"max":[1,1,1],"min":[-1,-1,-1],"type":"VEC3"},{"bufferView":6,"componentType":5126,"count":24,"max":[0.125,0.578125],"min":[0.015625,0.015625],"type":"VEC2"},{"bufferView":7,"componentType":5123,"count":36,"max":[23],"min":[0],"type":"SCALAR"},{"bufferView":8,"componentType":5126,"count":24,"max":[0.0062500000931322575,0.359375,0.012500000186264515],"min":[-0.0062500000931322575,0,-0.012500000186264515],"type":"VEC3"},{"bufferView":9,"componentType":5126,"count":24,"max":[1,1,1],"min":[-1,-1,-1],"type":"VEC3"},{"bufferView":10,"componentType":5126,"count":24,"max":[0.1875,0.578125],"min":[0.046875,0.015625],"type":"VEC2"},{"bufferView":11,"componentType":5123,"count":36,"max":[23],"min":[0],"type":"SCALAR"},{"bufferView":12,"componentType":5126,"count":24,"max":[0.0062500000931322575,0.359375,0.012500000186264515],"min":[-0.0062500000931322575,0,-0.012500000186264515],"type":"VEC3"},{"bufferView":13,"componentType":5126,"count":24,"max":[1,1,1],"min":[-1,-1,-1],"type":"VEC3"},{"bufferView":14,"componentType":5126,"count":24,"max":[0.125,0.578125],"min":[0.015625,0.015625],"type":"VEC2"},{"bufferView":15,"componentType":5123,"count":36,"max":[23],"min":[0],"type":"SCALAR"},{"bufferView":16,"componentType":5126,"count":24,"max":[0.0062500000931322575,0.359375,0.012500000186264515],"min":[-0.0062500000931322575,0,-0.012500000186264515],"type":"VEC3"},{"bufferView":17,"componentType":5126,"count":24,"max":[1,1,1],"min":[-1,-1,-1],"type":"VEC3"},{"bufferView":18,"componentType":5126,"count":24,"max":[0.1875,0.578125],"min":[0.046875,0.015625],"type":"VEC2"},{"bufferView":19,"componentType":5123,"count":36,"max":[23],"min":[0],"type":"SCALAR"}],"materials":[{"pbrMetallicRoughness":{"metallicFactor":0,"roughnessFactor":1,"baseColorTexture":{"index":0}},"alphaMode":"MASK","alphaCutoff":0.05,"doubleSided":true}],"textures":[{"sampler":0,"source":0,"name":"texture"}],"samplers":[{"magFilter":9728,"minFilter":9728,"wrapS":33071,"wrapT":33071}],"images":[{"mimeType":"image/png","uri":"data:image/png;base64,"}],"meshes":[{"primitives":[{"mode":4,"attributes":{"POSITION":0,"NORMAL":1,"TEXCOORD_0":2},"indices":3,"material":0}]},{"primitives":[{"mode":4,"attributes":{"POSITION":4,"NORMAL":5,"TEXCOORD_0":6},"indices":7,"material":0}]},{"primitives":[{"mode":4,"attributes":{"POSITION":8,"NORMAL":9,"TEXCOORD_0":10},"indices":11,"material":0}]},{"primitives":[{"mode":4,"attributes":{"POSITION":12,"NORMAL":13,"TEXCOORD_0":14},"indices":15,"material":0}]},{"primitives":[{"mode":4,"attributes":{"POSITION":16,"NORMAL":17,"TEXCOORD_0":18},"indices":19,"material":0}]}]}