{"asset":{"version":"2.0","generator":"Blockbench 4.10.0 glTF exporter"},"scenes":[{"nodes":[5],"name":"blockbench_export"}],"scene":0,"nodes":[{"name":"cuboid","mesh":0},{"rotation":[0.2053349539630723,-0.5880183863281622,0.15755905175128324,0.7663204807600039],"translation":[0.625,1.375,-0.25],"name":"cuboid","mesh":1},{"rotation":[0.2484791865629809,0.2702940715975419,-0.07242507820347985,0.9273369488764276],"translation":[-0.4375,1.375,-0.4375],"name":"cuboid","mesh":2},{"name":"bone","children":[1,2]},{"name":"tree","children":[0,3]},{"children":[4]}],"bufferViews":[{"buffer":0,"byteOffset":0,"byteLength":4176,"target":34962,"byteStride":12},{"buffer":0,"byteOffset":4176,"byteLength":4176,"target":34962,"byteStride":12},{"buffer":0,"byteOffset":8352,"byteLength":2784,"target":34962,"byteStride":8},{"buffer":0,"byteOffset":11136,"byteLength":1044,"target":34963},{"buffer":0,"byteOffset":12180,"byteLength":1056,"target":34962,"byteStride":12},{"buffer":0,"byteOffset":13236,"byteLength":1056,"target":34962,"byteStride":12},{"buffer":0,"byteOffset":14292,"byteLength":704,"target":34962,"byteStride":8},{"buffer":0,"byteOffset":14996,"byteLength":264,"target":34963},{"buffer":0,"byteOffset":15260,"byteLength":1056,"target":34962,"byteStride":12},{"buffer":0,"byteOffset":16316,"byteLength":1056,"target":34962,"byteStride":12},{"buffer":0,"byteOffset":17372,"byteLength":704,"target":34962,"byteStride":8},{"buffer":0,"byteOffset":18076,"byteLength":264,"target":34963}],"buffers":[{"byteLength":18340,"uri":"data:application/octet-stream;base64,"}],"accessors":[{"bufferView":0,"componentType":5126,"count":348,"max":[0.8671875,2.625,1.0155109167099],"min":[-0.7421875,0,-0.9375],"type":"VEC3"},{"bufferView":1,"componentType":5126,"count":348,"max":[1,1,1],"min":[-1,-1,-1],"type":"VEC3"},{"bufferView":2,"componentType":5126,"count":348,"max":[0.46875,0.48439377546310425],"min":[0,0],"type":"VEC2"},{"bufferView":3,"componentType":5123,"count":522,"max":[347],"min":[0],"type":"SCALAR"},{"bufferView":4,"componentType":5126,"count":88,"max":[0.03750000149011612,0.7520732283592224,0.5],"min":[-0.03750000149011612,0.21875,-0.8727563619613647],"type":"VEC3"},{"bufferView":5,"componentType":5126,"count":88,"max":[1,0.999799907207489,1],"min":[-1,-0.999799907207489,-1],"type":"VEC3"},{"bufferView":6,"componentType":5126,"count":88,"max":[0.42890235781669617,0.53125],"min":[0,0],"type":"VEC2"},{"bufferView":7,"componentType":5123,"count":132,"max":[87],"min":[0],"type":"SCALAR"},{"bufferView":8,"componentType":5126,"count":88,"max":[0.03750000149011612,0.7520732283592224,0.5],"min":[-0.03750000149011612,0.21875,-0.8727563619613647],"type":"VEC3"},{"bufferView":9,"componentType":5126,"count":88,"max":[1,0.999799907207489,1],"min":[-1,-0.999799907207489,-1],"type":"VEC3"},{"bufferView":10,"componentType":5126,"count":88,"max":[0.4367152452468872,0.53125],"min":[0,0],"type":"VEC2"},{"bufferView":11,"componentType":5123,"count":132,"max":[87],"min":[0],"type":"SCALAR"}],"materials":[{"pbrMetallicRoughness":{"metallicFactor":0,"roughnessFactor":1,"baseColorTexture":{"index":0}},"alphaMode":"MASK","alphaCutoff":0.05,"doubleSided":true}],"textures":[{"sampler":0,"source":0,"name":"tree_1"}],"samplers":[{"magFilter":9728,"minFilter":9728,"wrapS":33071,"wrapT":33071}],"images":[{"mimeType":"image/png","uri":"data:image/png;base64,"}],"meshes":[{"primitives":[{"mode":4,"attributes":{"POSITION":0,"NORMAL":1,"TEXCOORD_0":2},"indices":3,"material":0}]},{"primitives":[{"mode":4,"attributes":{"POSITION":4,"NORMAL":5,"TEXCOORD_0":6},"indices":7,"material":0}]},{"primitives":[{"mode":4,"attributes":{"POSITION":8,"NORMAL":9,"TEXCOORD_0":10},"indices":11,"material":0}]}]}