{"asset":{"version":"2.0","generator":"Blockbench 4.10.0 glTF exporter"},"scenes":[{"nodes":[4],"name":"blockbench_export"}],"scene":0,"nodes":[{"translation":[-0.03125,0,-0.1],"name":"cuboid","mesh":0},{"translation":[0.006249999999999999,0,-0.1],"name":"cuboid","mesh":1},{"name":"cuboid","mesh":2},{"translation":[0.03125,0,0.1],"name":"root","children":[0,1,2]},{"children":[3]}],"bufferViews":[{"buffer":0,"byteOffset":0,"byteLength":1536,"target":34962,"byteStride":12},{"buffer":0,"byteOffset":1536,"byteLength":1536,"target":34962,"byteStride":12},{"buffer":0,"byteOffset":3072,"byteLength":1024,"target":34962,"byteStride":8},{"buffer":0,"byteOffset":4096,"byteLength":360,"target":34963},{"buffer":0,"byteOffset":4456,"byteLength":480,"target":34962,"byteStride":12},{"buffer":0,"byteOffset":4936,"byteLength":480,"target":34962,"byteStride":12},{"buffer":0,"byteOffset":5416,"byteLength":320,"target":34962,"byteStride":8},{"buffer":0,"byteOffset":5736,"byteLength":120,"target":34963},{"buffer":0,"byteOffset":5856,"byteLength":1056,"target":34962,"byteStride":12},{"buffer":0,"byteOffset":6912,"byteLength":1056,"target":34962,"byteStride":12},{"buffer":0,"byteOffset":7968,"byteLength":704,"target":34962,"byteStride":8},{"buffer":0,"byteOffset":8672,"byteLength":264,"target":34963}],"buffers":[{"byteLength":8936,"uri":"data:application/octet-stream;base64,"}],"accessors":[{"bufferView":0,"componentType":5126,"count":128,"max":[0.25,0.34375,0.25],"min":[-0.1875,0,-0.25],"type":"VEC3"},{"bufferView":1,"componentType":5126,"count":128,"max":[1,1,1],"min":[-1,-1,-1],"type":"VEC3"},{"bufferView":2,"componentType":5126,"count":128,"max":[0.8941370248794556,0.8125],"min":[0,0],"type":"VEC2"},{"bufferView":3,"componentType":5123,"count":180,"max":[127],"min":[0],"type":"SCALAR"},{"bufferView":4,"componentType":5126,"count":40,"max":[0.02500000037252903,0.39375001192092896,0.48124998807907104],"min":[-0.02500000037252903,0.125,0.25],"type":"VEC3"},{"bufferView":5,"componentType":5126,"count":40,"max":[1,0.9191450476646423,1],"min":[-1,-0.9191450476646423,-1],"type":"VEC3"},{"bufferView":6,"componentType":5126,"count":40,"max":[0.715624988079071,0.9375],"min":[0.19062499701976776,0.1875],"type":"VEC2"},{"bufferView":7,"componentType":5123,"count":60,"max":[39],"min":[0],"type":"SCALAR"},{"bufferView":8,"componentType":5126,"count":88,"max":[0.02500000037252903,0.25,-0.3499999940395355],"min":[-0.02500000037252903,0.0625,-0.4625000059604645],"type":"VEC3"},{"bufferView":9,"componentType":5126,"count":88,"max":[1,1,1],"min":[-1,-1,-1],"type":"VEC3"},{"bufferView":10,"componentType":5126,"count":88,"max":[0.78125,0.8125],"min":[0.25312501192092896,0.09375],"type":"VEC2"},{"bufferView":11,"componentType":5123,"count":132,"max":[87],"min":[0],"type":"SCALAR"}],"materials":[{"pbrMetallicRoughness":{"metallicFactor":0,"roughnessFactor":1,"baseColorTexture":{"index":0}},"alphaMode":"MASK","alphaCutoff":0.05,"doubleSided":true}],"textures":[{"sampler":0,"source":0,"name":"texture"}],"samplers":[{"magFilter":9728,"minFilter":9728,"wrapS":33071,"wrapT":33071}],"images":[{"mimeType":"image/png","uri":"data:image/png;base64,"}],"meshes":[{"primitives":[{"mode":4,"attributes":{"POSITION":0,"NORMAL":1,"TEXCOORD_0":2},"indices":3,"material":0}]},{"primitives":[{"mode":4,"attributes":{"POSITION":4,"NORMAL":5,"TEXCOORD_0":6},"indices":7,"material":0}]},{"primitives":[{"mode":4,"attributes":{"POSITION":8,"NORMAL":9,"TEXCOORD_0":10},"indices":11,"material":0}]}]}